<mxfile host="65bd71144e">
    <diagram id="Z3gAyjk-pMmLyL40MJ9L" name="Page-1">
        <mxGraphModel dx="1025" dy="620" grid="0" gridSize="10" guides="1" tooltips="1" connect="1" arrows="1" fold="1" page="1" pageScale="1" pageWidth="1100" pageHeight="850" math="0" shadow="0">
            <root>
                <mxCell id="0"/>
                <mxCell id="1" parent="0"/>
                <mxCell id="7" style="edgeStyle=none;html=1;exitX=0.5;exitY=1;exitDx=0;exitDy=0;exitPerimeter=0;entryX=0.5;entryY=0;entryDx=0;entryDy=0;" parent="1" source="3" target="5" edge="1">
                    <mxGeometry relative="1" as="geometry"/>
                </mxCell>
                <mxCell id="3" value="START" style="strokeWidth=2;html=1;shape=mxgraph.flowchart.start_2;whiteSpace=wrap;" parent="1" vertex="1">
                    <mxGeometry x="400" y="80" width="60" height="60" as="geometry"/>
                </mxCell>
                <mxCell id="4" value="END" style="strokeWidth=2;html=1;shape=mxgraph.flowchart.start_2;whiteSpace=wrap;" parent="1" vertex="1">
                    <mxGeometry x="397" y="501" width="60" height="60" as="geometry"/>
                </mxCell>
                <mxCell id="11" style="html=1;exitX=0;exitY=0.5;exitDx=0;exitDy=0;entryX=0.5;entryY=0;entryDx=0;entryDy=0;startArrow=none;startFill=0;fillColor=#dae8fc;strokeColor=#6c8ebf;edgeStyle=orthogonalEdgeStyle;curved=1;" parent="1" source="5" target="8" edge="1">
                    <mxGeometry relative="1" as="geometry"/>
                </mxCell>
                <mxCell id="5" value="Customer Agent" style="rounded=1;whiteSpace=wrap;html=1;absoluteArcSize=1;arcSize=14;strokeWidth=2;" parent="1" vertex="1">
                    <mxGeometry x="370" y="190" width="120" height="50" as="geometry"/>
                </mxCell>
                <mxCell id="8" value="Investment Agent&lt;span style=&quot;color: rgba(0, 0, 0, 0); font-family: monospace; font-size: 0px; text-align: start;&quot;&gt;%3CmxGraphModel%3E%3Croot%3E%3CmxCell%20id%3D%220%22%2F%3E%3CmxCell%20id%3D%221%22%20parent%3D%220%22%2F%3E%3CmxCell%20id%3D%222%22%20value%3D%22Customer%20Agent%22%20style%3D%22rounded%3D1%3BwhiteSpace%3Dwrap%3Bhtml%3D1%3BabsoluteArcSize%3D1%3BarcSize%3D14%3BstrokeWidth%3D2%3B%22%20vertex%3D%221%22%20parent%3D%221%22%3E%3CmxGeometry%20x%3D%22370%22%20y%3D%22190%22%20width%3D%22120%22%20height%3D%2250%22%20as%3D%22geometry%22%2F%3E%3C%2FmxCell%3E%3C%2Froot%3E%3C%2FmxGraphModel%3E&lt;/span&gt;" style="rounded=1;whiteSpace=wrap;html=1;absoluteArcSize=1;arcSize=14;strokeWidth=2;" parent="1" vertex="1">
                    <mxGeometry x="230" y="300" width="120" height="50" as="geometry"/>
                </mxCell>
                <mxCell id="9" value="Saving Agent" style="rounded=1;whiteSpace=wrap;html=1;absoluteArcSize=1;arcSize=14;strokeWidth=2;" parent="1" vertex="1">
                    <mxGeometry x="510" y="300" width="120" height="50" as="geometry"/>
                </mxCell>
                <mxCell id="12" style="html=1;entryX=0.5;entryY=1;entryDx=0;entryDy=0;startArrow=none;startFill=0;fillColor=#dae8fc;strokeColor=#6c8ebf;exitX=0.5;exitY=1;exitDx=0;exitDy=0;edgeStyle=orthogonalEdgeStyle;curved=1;" parent="1" source="8" target="9" edge="1">
                    <mxGeometry relative="1" as="geometry">
                        <mxPoint x="263" y="415" as="sourcePoint"/>
                        <mxPoint x="330" y="310" as="targetPoint"/>
                        <Array as="points">
                            <mxPoint x="290" y="401"/>
                            <mxPoint x="570" y="401"/>
                        </Array>
                    </mxGeometry>
                </mxCell>
                <mxCell id="13" style="html=1;entryX=0.5;entryY=0;entryDx=0;entryDy=0;startArrow=classic;startFill=1;fillColor=#dae8fc;strokeColor=#6c8ebf;edgeStyle=orthogonalEdgeStyle;curved=1;exitX=1;exitY=0.5;exitDx=0;exitDy=0;endArrow=none;endFill=0;" parent="1" source="5" target="9" edge="1">
                    <mxGeometry relative="1" as="geometry">
                        <mxPoint x="430" y="240" as="sourcePoint"/>
                        <mxPoint x="340" y="320" as="targetPoint"/>
                    </mxGeometry>
                </mxCell>
                <mxCell id="16" style="html=1;entryX=0.5;entryY=0;entryDx=0;entryDy=0;startArrow=none;startFill=0;fillColor=#dae8fc;strokeColor=#6c8ebf;entryPerimeter=0;dashed=1;" parent="1" target="4" edge="1">
                    <mxGeometry relative="1" as="geometry">
                        <mxPoint x="430" y="240" as="sourcePoint"/>
                        <mxPoint x="520" y="335" as="targetPoint"/>
                    </mxGeometry>
                </mxCell>
                <mxCell id="17" style="html=1;entryX=0.5;entryY=0;entryDx=0;entryDy=0;startArrow=none;startFill=0;fillColor=#dae8fc;strokeColor=#6c8ebf;entryPerimeter=0;exitX=0.5;exitY=1;exitDx=0;exitDy=0;dashed=1;" edge="1" parent="1" source="8" target="4">
                    <mxGeometry relative="1" as="geometry">
                        <mxPoint x="440" y="250" as="sourcePoint"/>
                        <mxPoint x="440" y="445" as="targetPoint"/>
                    </mxGeometry>
                </mxCell>
                <mxCell id="18" style="html=1;entryX=0.5;entryY=0;entryDx=0;entryDy=0;startArrow=none;startFill=0;fillColor=#dae8fc;strokeColor=#6c8ebf;entryPerimeter=0;exitX=0.5;exitY=1;exitDx=0;exitDy=0;dashed=1;" edge="1" parent="1" source="9" target="4">
                    <mxGeometry relative="1" as="geometry">
                        <mxPoint x="300" y="360" as="sourcePoint"/>
                        <mxPoint x="432" y="511" as="targetPoint"/>
                    </mxGeometry>
                </mxCell>
            </root>
        </mxGraphModel>
    </diagram>
</mxfile>